# Alias OBJ Model File
# Exported from SketchUp, (c) 2000-2012 Trimble Navigation Limited
# File units = meters

mtllib stairs_4x4x1_ugl_vpuk_collider.mtl

g Mesh1 Model

usemtl FrontColor
v 2 0 -2
vt -78.7402 78.7402
vn 0 -1 -0
v -2 0 2
vt 78.7402 -78.7402
v -2 0 -2
vt 78.7402 78.7402
f 1/1/1 2/2/1 3/3/1

v 2 0 2
vt -78.7402 -78.7402
f 2/2/1 1/1/1 4/4/1

vt 78.7402 0
vn 1 0 -0
v 2 1 2
vt -78.7402 39.3701
vt -78.7402 0
f 1/5/2 5/6/2 4/7/2

v 2 1 -2
vt 78.7402 39.3701
f 5/6/2 1/5/2 6/8/2

vn 0 0 -1
v -2 1 -2
f 1/7/3 7/8/3 6/6/3

f 7/8/3 1/7/3 3/5/3

vn -1 0 -0
f 3/7/4 2/5/4 7/6/4

vt 78.7402 85.9378
vn -3.52567e-17 0.970143 0.242536
vt -78.7402 85.9378
vt -78.7402 -76.3892
f 6/9/5 7/10/5 2/11/5

vn -0.242536 0.970143 3.52567e-17
vt 78.7402 -76.3892
f 6/10/6 2/12/6 5/9/6

vn 0 0 1
f 5/8/7 2/7/7 4/5/7

