# Alias OBJ Model File
# Exported from SketchUp, (c) 2000-2012 Trimble Navigation Limited
# File units = meters

mtllib stairs_4x4x1_ugl_vpuk.mtl

g Mesh1 Model

usemtl FrontColor
v 2 0 -2
vt -78.7402 78.7402
vn 0 -1 -0
v -2 0 2
vt 78.7402 -78.7402
v -2 0 -2
vt 78.7402 78.7402
f 1/1/1 2/2/1 3/3/1

v 2 0 2
vt -78.7402 -78.7402
f 2/2/1 1/1/1 4/4/1

vt 78.7402 0
vn 1 0 -0
v 2 1 2
vt -78.7402 39.3701
vt -78.7402 0
f 1/5/2 5/6/2 4/7/2

v 2 1 -2
vt 78.7402 39.3701
f 5/6/2 1/5/2 6/8/2

vn 0 0 -1
v -2 1 -2
f 1/7/3 7/8/3 6/6/3

f 7/8/3 1/7/3 3/5/3

vn -1 0 -0
v -2 0.75 -1
vt -39.3701 29.5276
f 3/7/4 8/9/4 7/6/4

v -2 0.5 -3.60956e-16
vt -1.42109e-14 19.685
f 3/7/4 9/10/4 8/9/4

v -2 0.25 1
vt 39.3701 9.84252
f 3/7/4 10/11/4 9/10/4

f 2/5/4 10/11/4 3/7/4

v -2 0.25 2
vt 78.7402 9.84252
f 10/11/4 2/5/4 11/12/4

vt -78.7402 9.84252
vn 0 0 1
v -1 0.25 2
vt -39.3701 9.84252
f 11/13/5 2/7/5 12/14/5

v 3.60956e-16 0.5 2
vt 1.42109e-14 19.685
f 2/7/5 13/15/5 12/14/5

f 4/5/5 13/15/5 2/7/5

f 13/15/5 4/5/5 5/8/5

v 1 0.75 2
vt 39.3701 29.5276
f 13/15/5 5/8/5 14/16/5

v 1 1 2
vt 39.3701 39.3701
f 14/16/5 5/8/5 15/17/5

vn 0 1 -0
v 1 1 -1
vt 39.3701 -78.7402
f 5/2/6 16/17/6 15/18/6

f 16/17/6 5/2/6 6/3/6

f 7/1/6 16/17/6 6/3/6

v -2 1 -1
f 16/17/6 7/1/6 17/6/6

vt -39.3701 39.3701
f 7/6/4 8/9/4 17/19/4

vt -78.7402 29.5276
f 8/20/5 16/17/5 17/6/5

v 1 0.75 -1
f 16/17/5 8/20/5 18/16/5

v -7.21911e-16 0.75 -3.60956e-16
vt -2.84217e-14 1.42109e-14
f 8/6/6 19/21/6 18/17/6

v -2 0.75 -3.60956e-16
vt -78.7402 1.42109e-14
f 19/21/6 8/6/6 20/22/6

vt -1.42109e-14 29.5276
f 8/9/4 9/10/4 20/23/4

vt -78.7402 19.685
vt -2.84217e-14 29.5276
f 9/24/5 19/25/5 20/20/5

v -7.21911e-16 0.5 -3.60956e-16
vt -2.84217e-14 19.685
f 19/25/5 9/24/5 21/26/5

v -1 0.5 1
vt -39.3701 -39.3701
f 9/22/6 22/27/6 21/21/6

v -2 0.5 1
vt -78.7402 -39.3701
f 22/27/6 9/22/6 23/28/6

vt 39.3701 19.685
f 9/10/4 10/11/4 23/29/4

vt -39.3701 19.685
f 10/13/5 22/30/5 23/24/5

v -1 0.25 1
f 22/30/5 10/13/5 24/14/5

f 24/27/6 10/28/6 11/4/6

vt -39.3701 -78.7402
f 24/27/6 11/4/6 12/31/6

f 12/12/4 22/29/4 24/11/4

v -1 0.5 2
vt 78.7402 19.685
f 22/29/4 12/12/4 25/32/4

f 25/30/5 12/14/5 13/15/5

vt 1.42109e-14 -78.7402
f 13/33/6 22/27/6 25/31/6

f 22/27/6 13/33/6 21/21/6

vn -1 -5.64343e-46 5.41434e-16
f 13/32/7 19/23/7 21/10/7

v 3.60956e-16 0.75 2
vt 78.7402 29.5276
f 19/23/7 13/32/7 26/34/7

vt 1.42109e-14 29.5276
f 26/35/5 13/15/5 14/16/5

f 18/17/6 26/33/6 14/18/6

f 26/33/6 18/17/6 19/21/6

f 14/34/4 16/19/4 18/9/4

f 16/19/4 14/34/4 15/8/4

